<svg width="27" height="25" viewBox="0 0 27 25" fill="none" xmlns="http://www.w3.org/2000/svg">
<path d="M25.79 18.3101C23.25 19.2001 21.91 18.3101 20.84 17.3701C18.94 15.3901 19.6 6.9401 19.5 6.4501C19.4 5.9601 19.28 4.0001 17.18 4.0001C13.93 3.9601 12.95 15.9001 12.95 15.9001C12.95 15.9001 14.55 4.0001 10.63 4.0001C7.15 4.0901 6.35 15.9001 6.35 15.9001C6.35 15.9001 5.82 6.4101 5.28 5.3001C4.74 4.1901 4.3 4.0101 3.23 4.0101C2.16 4.0101 1 5.3001 1 5.3001" stroke="white" stroke-width="1.8" stroke-linecap="round" stroke-linejoin="round"/>
<path d="M22.2793 15.8801L25.8793 18.2501L22.2793 21.2001" stroke="white" stroke-width="1.8" stroke-linecap="round" stroke-linejoin="round"/>
</svg>
