<svg width="360" height="557" viewBox="0 0 360 557" fill="none" xmlns="http://www.w3.org/2000/svg">
<path d="M164.62 321.281L27.6025 288.075L28.6458 283.815L164.273 316.673L257.647 276.687L259.298 280.686L164.62 321.281Z" fill="#FFFDFD"/>
<path d="M256.736 8.7821L26.4883 284.601L29.8256 287.386L260.073 11.5671L256.736 8.7821Z" fill="#FFFDFD"/>
<path d="M160.621 553.027L7.3457 425.332V380.825L38.1226 360.311L25.9509 286.336L30.2979 285.554L42.9043 362.397L11.6927 383.172V423.332L155.927 543.552L153.753 466.969L239.65 435.937L271.818 449.845L351.455 475.314L350.151 479.487L270.34 453.93L239.563 440.631L158.187 470.012L160.621 553.027Z" fill="#FFFDFD"/>
<path d="M258.429 17.3853C263.231 17.3853 267.123 13.4935 267.123 8.69265C267.123 3.89183 263.231 0 258.429 0C253.628 0 249.735 3.89183 249.735 8.69265C249.735 13.4935 253.628 17.3853 258.429 17.3853Z" fill="white"/>
<path d="M135.322 167.334C140.124 167.334 144.016 163.442 144.016 158.641C144.016 153.84 140.124 149.948 135.322 149.948C130.52 149.948 126.628 153.84 126.628 158.641C126.628 163.442 130.52 167.334 135.322 167.334Z" fill="white"/>
<path d="M28.1247 294.594C32.9263 294.594 36.8187 290.702 36.8187 285.901C36.8187 281.101 32.9263 277.209 28.1247 277.209C23.3231 277.209 19.4307 281.101 19.4307 285.901C19.4307 290.702 23.3231 294.594 28.1247 294.594Z" fill="white"/>
<path d="M40.6442 369.003C45.4458 369.003 49.3383 365.111 49.3383 360.311C49.3383 355.51 45.4458 351.618 40.6442 351.618C35.8426 351.618 31.9502 355.51 31.9502 360.311C31.9502 365.111 35.8426 369.003 40.6442 369.003Z" fill="white"/>
<path d="M9.51923 392.995C14.3208 392.995 18.2133 389.103 18.2133 384.302C18.2133 379.501 14.3208 375.61 9.51923 375.61C4.71764 375.61 0.825195 379.501 0.825195 384.302C0.825195 389.103 4.71764 392.995 9.51923 392.995Z" fill="white"/>
<path d="M9.51923 431.764C14.3208 431.764 18.2133 427.872 18.2133 423.071C18.2133 418.271 14.3208 414.379 9.51923 414.379C4.71764 414.379 0.825195 418.271 0.825195 423.071C0.825195 427.872 4.71764 431.764 9.51923 431.764Z" fill="white"/>
<path d="M155.84 478.183C160.641 478.183 164.534 474.291 164.534 469.49C164.534 464.689 160.641 460.798 155.84 460.798C151.038 460.798 147.146 464.689 147.146 469.49C147.146 474.291 151.038 478.183 155.84 478.183Z" fill="white"/>
<path d="M159.317 556.938C164.119 556.938 168.011 553.047 168.011 548.246C168.011 543.445 164.119 539.553 159.317 539.553C154.515 539.553 150.623 543.445 150.623 548.246C150.623 553.047 154.515 556.938 159.317 556.938Z" fill="white"/>
<path d="M239.911 446.976C244.712 446.976 248.605 443.084 248.605 438.284C248.605 433.483 244.712 429.591 239.911 429.591C235.109 429.591 231.217 433.483 231.217 438.284C231.217 443.084 235.109 446.976 239.911 446.976Z" fill="white"/>
<path d="M272.426 459.494C277.228 459.494 281.12 455.602 281.12 450.801C281.12 446 277.228 442.108 272.426 442.108C267.625 442.108 263.732 446 263.732 450.801C263.732 455.602 267.625 459.494 272.426 459.494Z" fill="white"/>
<path d="M350.759 486.963C355.561 486.963 359.453 483.071 359.453 478.27C359.453 473.469 355.561 469.577 350.759 469.577C345.958 469.577 342.065 473.469 342.065 478.27C342.065 483.071 345.958 486.963 350.759 486.963Z" fill="white"/>
<path d="M163.142 327.713C167.944 327.713 171.836 323.821 171.836 319.02C171.836 314.22 167.944 310.328 163.142 310.328C158.341 310.328 154.448 314.22 154.448 319.02C154.448 323.821 158.341 327.713 163.142 327.713Z" fill="white"/>
<path d="M256.951 287.379C261.752 287.379 265.645 283.487 265.645 278.687C265.645 273.886 261.752 269.994 256.951 269.994C252.149 269.994 248.257 273.886 248.257 278.687C248.257 283.487 252.149 287.379 256.951 287.379Z" fill="white"/>
</svg>
