<svg width="192" height="205" viewBox="0 0 192 205" fill="none" xmlns="http://www.w3.org/2000/svg">
<path d="M179.061 195.921L174.714 195.226L180.8 156.718L134.2 105.605L8.0498 11.3764L10.658 7.89929L137.156 102.389L185.408 155.327L179.061 195.921Z" fill="#FFFDFD"/>
<path d="M9.35419 18.3306C14.1558 18.3306 18.0482 14.4388 18.0482 9.63797C18.0482 4.83715 14.1558 0.945312 9.35419 0.945312C4.55261 0.945312 0.660156 4.83715 0.660156 9.63797C0.660156 14.4388 4.55261 18.3306 9.35419 18.3306Z" fill="white"/>
<path d="M133.853 111.342C138.655 111.342 142.547 107.45 142.547 102.649C142.547 97.8485 138.655 93.9567 133.853 93.9567C129.052 93.9567 125.159 97.8485 125.159 102.649C125.159 107.45 129.052 111.342 133.853 111.342Z" fill="white"/>
<path d="M183.061 165.497C187.863 165.497 191.755 161.605 191.755 156.804C191.755 152.004 187.863 148.112 183.061 148.112C178.26 148.112 174.367 152.004 174.367 156.804C174.367 161.605 178.26 165.497 183.061 165.497Z" fill="white"/>
<path d="M174.715 204.266C179.516 204.266 183.409 200.375 183.409 195.574C183.409 190.773 179.516 186.881 174.715 186.881C169.913 186.881 166.021 190.773 166.021 195.574C166.021 200.375 169.913 204.266 174.715 204.266Z" fill="white"/>
</svg>
