<svg width="312" height="366" viewBox="0 0 312 366" fill="none" xmlns="http://www.w3.org/2000/svg">
<path d="M309.181 360.585L42.0134 304.691L7.2373 282.786L15.1489 223.067L10.4541 140.4L10.628 139.965L38.3619 67.4685L41.231 1.92589L98.6985 94.6765L126.606 162.305L309.094 360.672L309.181 360.585ZM44.0131 300.779L296.835 353.544L122.781 164.218L94.8731 96.5889L45.0563 16.1818L42.622 68.6855L14.888 141.095L19.4959 223.241L11.9321 280.612L44.0131 300.866V300.779Z" fill="#FFFDFD"/>
<path d="M44.7087 17.6596C49.5103 17.6596 53.4027 13.7678 53.4027 8.96694C53.4027 4.16612 49.5103 0.274289 44.7087 0.274289C39.9071 0.274289 36.0146 4.16612 36.0146 8.96694C36.0146 13.7678 39.9071 17.6596 44.7087 17.6596Z" fill="white"/>
<path d="M39.5788 77.1173C44.3804 77.1173 48.2728 73.2255 48.2728 68.4247C48.2728 63.6239 44.3804 59.732 39.5788 59.732C34.7772 59.732 30.8848 63.6239 30.8848 68.4247C30.8848 73.2255 34.7772 77.1173 39.5788 77.1173Z" fill="white"/>
<path d="M11.6716 149.875C16.4731 149.875 20.3656 145.983 20.3656 141.182C20.3656 136.381 16.4731 132.49 11.6716 132.49C6.86999 132.49 2.97754 136.381 2.97754 141.182C2.97754 145.983 6.86999 149.875 11.6716 149.875Z" fill="white"/>
<path d="M18.3659 231.499C23.1675 231.499 27.0599 227.607 27.0599 222.806C27.0599 218.005 23.1675 214.114 18.3659 214.114C13.5643 214.114 9.67188 218.005 9.67188 222.806C9.67188 227.607 13.5643 231.499 18.3659 231.499Z" fill="white"/>
<path d="M9.58465 291.391C14.3862 291.391 18.2787 287.499 18.2787 282.699C18.2787 277.898 14.3862 274.006 9.58465 274.006C4.78307 274.006 0.890625 277.898 0.890625 282.699C0.890625 287.499 4.78307 291.391 9.58465 291.391Z" fill="white"/>
<path d="M41.6657 309.472C46.4673 309.472 50.3597 305.58 50.3597 300.779C50.3597 295.979 46.4673 292.087 41.6657 292.087C36.8641 292.087 32.9717 295.979 32.9717 300.779C32.9717 305.58 36.8641 309.472 41.6657 309.472Z" fill="white"/>
<path d="M125.302 174.649C130.104 174.649 133.996 170.757 133.996 165.956C133.996 161.155 130.104 157.264 125.302 157.264C120.501 157.264 116.608 161.155 116.608 165.956C116.608 170.757 120.501 174.649 125.302 174.649Z" fill="white"/>
<path d="M97.3942 106.499C102.196 106.499 106.088 102.607 106.088 97.8059C106.088 93.0051 102.196 89.1132 97.3942 89.1132C92.5926 89.1132 88.7002 93.0051 88.7002 97.8059C88.7002 102.607 92.5926 106.499 97.3942 106.499Z" fill="white"/>
<path d="M303.008 365.713C307.81 365.713 311.703 361.822 311.703 357.021C311.703 352.22 307.81 348.328 303.008 348.328C298.207 348.328 294.314 352.22 294.314 357.021C294.314 361.822 298.207 365.713 303.008 365.713Z" fill="white"/>
</svg>
