<svg width="298" height="474" viewBox="0 0 298 474" fill="none" xmlns="http://www.w3.org/2000/svg">
<path d="M10.3975 471.459L13.7012 320.815L14.3097 320.207L158.457 166.868L115.943 127.838V126.795L126.289 13.7038L184.626 7.27124L185.061 11.6176L130.288 17.6155L120.464 126.1L162.369 164.521L228.183 158.35L292.867 211.722L76.2113 387.662L10.5714 471.459H10.3975ZM17.9614 322.554L15.0053 458.507L72.9944 384.619L285.824 211.636L226.618 162.783L162.456 168.781L17.9614 322.467V322.554Z" fill="#FFFDFD"/>
<path d="M185.147 18.2239C189.949 18.2239 193.841 14.3321 193.841 9.53128C193.841 4.73046 189.949 0.838623 185.147 0.838623C180.346 0.838623 176.453 4.73046 176.453 9.53128C176.453 14.3321 180.346 18.2239 185.147 18.2239Z" fill="white"/>
<path d="M127.854 25.9604C132.656 25.9604 136.548 22.0685 136.548 17.2677C136.548 12.4669 132.656 8.57507 127.854 8.57507C123.053 8.57507 119.16 12.4669 119.16 17.2677C119.16 22.0685 123.053 25.9604 127.854 25.9604Z" fill="white"/>
<path d="M118.03 135.662C122.832 135.662 126.724 131.77 126.724 126.969C126.724 122.168 122.832 118.276 118.03 118.276C113.228 118.276 109.336 122.168 109.336 126.969C109.336 131.77 113.228 135.662 118.03 135.662Z" fill="white"/>
<path d="M159.674 177.647C164.475 177.647 168.368 173.755 168.368 168.955C168.368 164.154 164.475 160.262 159.674 160.262C154.872 160.262 150.979 164.154 150.979 168.955C150.979 173.755 154.872 177.647 159.674 177.647Z" fill="white"/>
<path d="M226.27 168.868C231.072 168.868 234.964 164.976 234.964 160.175C234.964 155.374 231.072 151.482 226.27 151.482C221.469 151.482 217.576 155.374 217.576 160.175C217.576 164.976 221.469 168.868 226.27 168.868Z" fill="white"/>
<path d="M75.3415 395.051C80.1431 395.051 84.0355 391.159 84.0355 386.358C84.0355 381.557 80.1431 377.665 75.3415 377.665C70.5399 377.665 66.6475 381.557 66.6475 386.358C66.6475 391.159 70.5399 395.051 75.3415 395.051Z" fill="white"/>
<path d="M9.52801 473.719C14.3296 473.719 18.222 469.827 18.222 465.026C18.222 460.226 14.3296 456.334 9.52801 456.334C4.72643 456.334 0.833984 460.226 0.833984 465.026C0.833984 469.827 4.72643 473.719 9.52801 473.719Z" fill="white"/>
<path d="M17.5261 330.116C22.3276 330.116 26.2201 326.225 26.2201 321.424C26.2201 316.623 22.3276 312.731 17.5261 312.731C12.7245 312.731 8.83203 316.623 8.83203 321.424C8.83203 326.225 12.7245 330.116 17.5261 330.116Z" fill="white"/>
<path d="M289.302 220.85C294.104 220.85 297.996 216.958 297.996 212.157C297.996 207.356 294.104 203.464 289.302 203.464C284.5 203.464 280.608 207.356 280.608 212.157C280.608 216.958 284.5 220.85 289.302 220.85Z" fill="white"/>
</svg>
