<svg width="225" height="250" viewBox="0 0 225 250" fill="none" xmlns="http://www.w3.org/2000/svg">
<path d="M221.951 129.987L1.12305 21.7637L136.924 7.4209L221.951 129.987ZM16.5115 24.5454L208.823 118.774L134.75 12.028L16.5115 24.5454Z" fill="#FFFDFD"/>
<path d="M23.7278 190.836L19.8155 188.924L38.1599 151.719V118.513L6.77441 23.7631L10.8606 22.4592L42.5069 118.165L42.2461 153.197L23.7278 190.836Z" fill="#FFFDFD"/>
<path d="M208.041 241.862L181.438 208.917L213.345 123.555L217.431 125.119L186.393 208.134L211.432 239.167L208.041 241.862Z" fill="#FFFDFD"/>
<path d="M8.86102 31.7603C13.6626 31.7603 17.5551 27.8685 17.5551 23.0677C17.5551 18.2668 13.6626 14.375 8.86102 14.375C4.05944 14.375 0.166992 18.2668 0.166992 23.0677C0.166992 27.8685 4.05944 31.7603 8.86102 31.7603Z" fill="white"/>
<path d="M133.795 18.3736C138.596 18.3736 142.489 14.4818 142.489 9.68094C142.489 4.88012 138.596 0.988281 133.795 0.988281C128.993 0.988281 125.101 4.88012 125.101 9.68094C125.101 14.4818 128.993 18.3736 133.795 18.3736Z" fill="white"/>
<path d="M215.431 133.03C220.233 133.03 224.125 129.138 224.125 124.337C224.125 119.536 220.233 115.644 215.431 115.644C210.63 115.644 206.737 119.536 206.737 124.337C206.737 129.138 210.63 133.03 215.431 133.03Z" fill="white"/>
<path d="M183.872 219.261C188.673 219.261 192.566 215.369 192.566 210.568C192.566 205.767 188.673 201.876 183.872 201.876C179.07 201.876 175.178 205.767 175.178 210.568C175.178 215.369 179.07 219.261 183.872 219.261Z" fill="white"/>
<path d="M209.519 249.164C214.321 249.164 218.213 245.272 218.213 240.471C218.213 235.67 214.321 231.778 209.519 231.778C204.718 231.778 200.825 235.67 200.825 240.471C200.825 245.272 204.718 249.164 209.519 249.164Z" fill="white"/>
<path d="M21.0329 198.485C25.8345 198.485 29.7269 194.594 29.7269 189.793C29.7269 184.992 25.8345 181.1 21.0329 181.1C16.2313 181.1 12.3389 184.992 12.3389 189.793C12.3389 194.594 16.2313 198.485 21.0329 198.485Z" fill="white"/>
<path d="M40.3337 161.455C45.1353 161.455 49.0277 157.563 49.0277 152.762C49.0277 147.961 45.1353 144.069 40.3337 144.069C35.5321 144.069 31.6396 147.961 31.6396 152.762C31.6396 157.563 35.5321 161.455 40.3337 161.455Z" fill="white"/>
<path d="M40.3337 129.031C45.1353 129.031 49.0277 125.139 49.0277 120.338C49.0277 115.538 45.1353 111.646 40.3337 111.646C35.5321 111.646 31.6396 115.538 31.6396 120.338C31.6396 125.139 35.5321 129.031 40.3337 129.031Z" fill="white"/>
</svg>
