<svg width="497" height="622" viewBox="0 0 497 622" fill="none" xmlns="http://www.w3.org/2000/svg">
<path d="M273.837 138.601L215.501 122.259L174.812 89.6618L188.984 43.5038L229.585 6.56006L284.618 28.8132L296.616 90.7918L296.268 91.4003L273.751 138.514L273.837 138.601ZM217.935 118.521L271.577 133.386L292.182 90.2702L280.88 31.9426L230.541 11.6018L192.896 45.9378L179.942 88.0971L217.935 118.521Z" fill="#FFFDFD"/>
<path d="M67.267 616.089L7.97363 575.581L10.495 572.017L66.6583 610.439L109.346 563.846H110.302L260.274 563.498L372.949 563.846L481.451 585.317L398.51 502.128L325.654 415.549L297.398 355.483L237.67 195.017L214.805 121.129L218.978 119.825L241.756 193.539L301.397 353.832L329.479 413.376L401.726 499.173L494.578 592.358L372.514 568.192L260.274 567.845L111.259 568.192L67.267 616.089Z" fill="#FFFDFD"/>
<path d="M177.334 100.354C182.135 100.354 186.028 96.4619 186.028 91.661C186.028 86.8602 182.135 82.9684 177.334 82.9684C172.532 82.9684 168.64 86.8602 168.64 91.661C168.64 96.4619 172.532 100.354 177.334 100.354Z" fill="white"/>
<path d="M218.369 130.952C223.171 130.952 227.063 127.06 227.063 122.259C227.063 117.458 223.171 113.567 218.369 113.567C213.568 113.567 209.675 117.458 209.675 122.259C209.675 127.06 213.568 130.952 218.369 130.952Z" fill="white"/>
<path d="M270.621 144.686C275.422 144.686 279.315 140.795 279.315 135.994C279.315 131.193 275.422 127.301 270.621 127.301C265.819 127.301 261.927 131.193 261.927 135.994C261.927 140.795 265.819 144.686 270.621 144.686Z" fill="white"/>
<path d="M294.355 98.4413C299.157 98.4413 303.049 94.5495 303.049 89.7487C303.049 84.9479 299.157 81.056 294.355 81.056C289.554 81.056 285.661 84.9479 285.661 89.7487C285.661 94.5495 289.554 98.4413 294.355 98.4413Z" fill="white"/>
<path d="M283.14 41.0699C287.941 41.0699 291.834 37.178 291.834 32.3772C291.834 27.5764 287.941 23.6846 283.14 23.6846C278.338 23.6846 274.446 27.5764 274.446 32.3772C274.446 37.178 278.338 41.0699 283.14 41.0699Z" fill="white"/>
<path d="M230.802 17.7735C235.604 17.7735 239.496 13.8817 239.496 9.08084C239.496 4.28002 235.604 0.388184 230.802 0.388184C226 0.388184 222.108 4.28002 222.108 9.08084C222.108 13.8817 226 17.7735 230.802 17.7735Z" fill="white"/>
<path d="M191.505 52.2834C196.306 52.2834 200.199 48.3915 200.199 43.5907C200.199 38.7899 196.306 34.8981 191.505 34.8981C186.703 34.8981 182.811 38.7899 182.811 43.5907C182.811 48.3915 186.703 52.2834 191.505 52.2834Z" fill="white"/>
<path d="M177.334 100.354C182.135 100.354 186.028 96.4619 186.028 91.661C186.028 86.8602 182.135 82.9684 177.334 82.9684C172.532 82.9684 168.64 86.8602 168.64 91.661C168.64 96.4619 172.532 100.354 177.334 100.354Z" fill="white"/>
<path d="M239.931 204.926C244.732 204.926 248.625 201.034 248.625 196.234C248.625 191.433 244.732 187.541 239.931 187.541C235.129 187.541 231.237 191.433 231.237 196.234C231.237 201.034 235.129 204.926 239.931 204.926Z" fill="white"/>
<path d="M300.354 365.567C305.156 365.567 309.048 361.675 309.048 356.874C309.048 352.073 305.156 348.181 300.354 348.181C295.553 348.181 291.66 352.073 291.66 356.874C291.66 361.675 295.553 365.567 300.354 365.567Z" fill="white"/>
<path d="M327.827 425.981C332.629 425.981 336.521 422.089 336.521 417.288C336.521 412.487 332.629 408.595 327.827 408.595C323.026 408.595 319.133 412.487 319.133 417.288C319.133 422.089 323.026 425.981 327.827 425.981Z" fill="white"/>
<path d="M399.901 509.604C404.702 509.604 408.595 505.712 408.595 500.911C408.595 496.11 404.702 492.219 399.901 492.219C395.099 492.219 391.207 496.11 391.207 500.911C391.207 505.712 395.099 509.604 399.901 509.604Z" fill="white"/>
<path d="M487.971 598.704C492.773 598.704 496.665 594.812 496.665 590.011C496.665 585.21 492.773 581.318 487.971 581.318C483.17 581.318 479.277 585.21 479.277 590.011C479.277 594.812 483.17 598.704 487.971 598.704Z" fill="white"/>
<path d="M374.514 575.407C379.316 575.407 383.208 571.515 383.208 566.715C383.208 561.914 379.316 558.022 374.514 558.022C369.713 558.022 365.82 561.914 365.82 566.715C365.82 571.515 369.713 575.407 374.514 575.407Z" fill="white"/>
<path d="M261.405 575.407C266.207 575.407 270.099 571.515 270.099 566.715C270.099 561.914 266.207 558.022 261.405 558.022C256.603 558.022 252.711 561.914 252.711 566.715C252.711 571.515 256.603 575.407 261.405 575.407Z" fill="white"/>
<path d="M110.042 575.407C114.843 575.407 118.736 571.515 118.736 566.715C118.736 561.914 114.843 558.022 110.042 558.022C105.24 558.022 101.348 561.914 101.348 566.715C101.348 571.515 105.24 575.407 110.042 575.407Z" fill="white"/>
<path d="M66.6584 622C71.46 622 75.3524 618.108 75.3524 613.307C75.3524 608.506 71.46 604.615 66.6584 604.615C61.8568 604.615 57.9644 608.506 57.9644 613.307C57.9644 618.108 61.8568 622 66.6584 622Z" fill="white"/>
<path d="M9.27801 583.665C14.0796 583.665 17.972 579.774 17.972 574.973C17.972 570.172 14.0796 566.28 9.27801 566.28C4.47643 566.28 0.583984 570.172 0.583984 574.973C0.583984 579.774 4.47643 583.665 9.27801 583.665Z" fill="white"/>
</svg>
