<svg width="482" height="413" viewBox="0 0 482 413" fill="none" xmlns="http://www.w3.org/2000/svg">
<path d="M253.049 106.403L229.14 81.4547L197.407 9.39262L201.406 7.65409L232.966 79.3685L254.179 101.274L291.563 87.105L293.128 91.1905L253.049 106.403Z" fill="#FFFDFD"/>
<path d="M201.667 231.838L188.8 182.029L240.877 185.158L251.484 103.534L255.831 104.056L245.137 186.549L279.392 215.756L201.754 231.751L201.667 231.838ZM194.451 186.723L204.797 226.709L269.654 213.322L241.833 189.591L194.364 186.723H194.451Z" fill="#FFFDFD"/>
<path d="M340.163 225.927L274.262 216.712L274.871 212.453L339.12 221.406L419.018 168.642L421.365 172.293L340.163 225.927Z" fill="#FFFDFD"/>
<path d="M287.912 388.566L279.131 345.711L326.687 290.339L337.468 223.319L341.728 224.014L330.773 292.252L283.826 346.928L292.172 387.697L287.912 388.566Z" fill="#FFFDFD"/>
<path d="M368.245 350.405L327.035 292.512L330.513 289.992L368.245 342.93L383.459 321.546L474.834 327.805L474.486 332.151L385.633 326.066L368.245 350.405Z" fill="#FFFDFD"/>
<path d="M11.9635 355.013L6.66016 268.694L9.79001 144.824L37.0893 113.183L122.812 99.4485L123.595 100.405L193.321 182.985L190.017 185.767L121.073 104.143L39.3497 117.182L14.05 146.476L11.0072 268.608L16.0497 350.492L87.7755 347.45L87.9493 351.796L11.9635 355.013Z" fill="#FFFDFD"/>
<path d="M66.736 404.908L12.4854 354.317L15.4413 351.188L69.6921 401.779L66.736 404.908Z" fill="#FFFDFD"/>
<path d="M68.2136 412.036C73.0151 412.036 76.9076 408.145 76.9076 403.344C76.9076 398.543 73.0151 394.651 68.2136 394.651C63.412 394.651 59.5195 398.543 59.5195 403.344C59.5195 408.145 63.412 412.036 68.2136 412.036Z" fill="white"/>
<path d="M86.4714 358.229C91.273 358.229 95.1654 354.337 95.1654 349.536C95.1654 344.735 91.273 340.844 86.4714 340.844C81.6698 340.844 77.7773 344.735 77.7773 349.536C77.7773 354.337 81.6698 358.229 86.4714 358.229Z" fill="white"/>
<path d="M8.83368 276.257C13.6353 276.257 17.5277 272.365 17.5277 267.564C17.5277 262.764 13.6353 258.872 8.83368 258.872C4.0321 258.872 0.139648 262.764 0.139648 267.564C0.139648 272.365 4.0321 276.257 8.83368 276.257Z" fill="white"/>
<path d="M12.3112 154.212C17.1128 154.212 21.0052 150.32 21.0052 145.52C21.0052 140.719 17.1128 136.827 12.3112 136.827C7.50964 136.827 3.61719 140.719 3.61719 145.52C3.61719 150.32 7.50964 154.212 12.3112 154.212Z" fill="white"/>
<path d="M39.0016 124.396C43.8032 124.396 47.6957 120.505 47.6957 115.704C47.6957 110.903 43.8032 107.011 39.0016 107.011C34.2001 107.011 30.3076 110.903 30.3076 115.704C30.3076 120.505 34.2001 124.396 39.0016 124.396Z" fill="white"/>
<path d="M122.465 112.488C127.266 112.488 131.159 108.596 131.159 103.795C131.159 98.994 127.266 95.1022 122.465 95.1022C117.663 95.1022 113.771 98.994 113.771 103.795C113.771 108.596 117.663 112.488 122.465 112.488Z" fill="white"/>
<path d="M191.669 193.503C196.47 193.503 200.363 189.611 200.363 184.81C200.363 180.01 196.47 176.118 191.669 176.118C186.867 176.118 182.975 180.01 182.975 184.81C182.975 189.611 186.867 193.503 191.669 193.503Z" fill="white"/>
<path d="M204.014 238.009C208.816 238.009 212.708 234.118 212.708 229.317C212.708 224.516 208.816 220.624 204.014 220.624C199.213 220.624 195.32 224.516 195.32 229.317C195.32 234.118 199.213 238.009 204.014 238.009Z" fill="white"/>
<path d="M274.523 222.102C279.325 222.102 283.217 218.21 283.217 213.409C283.217 208.608 279.325 204.717 274.523 204.717C269.722 204.717 265.829 208.608 265.829 213.409C265.829 218.21 269.722 222.102 274.523 222.102Z" fill="white"/>
<path d="M338.685 232.359C343.487 232.359 347.379 228.467 347.379 223.667C347.379 218.866 343.487 214.974 338.685 214.974C333.884 214.974 329.991 218.866 329.991 223.667C329.991 228.467 333.884 232.359 338.685 232.359Z" fill="white"/>
<path d="M328.774 299.988C333.575 299.988 337.468 296.096 337.468 291.295C337.468 286.495 333.575 282.603 328.774 282.603C323.972 282.603 320.08 286.495 320.08 291.295C320.08 296.096 323.972 299.988 328.774 299.988Z" fill="white"/>
<path d="M281.478 353.709C286.28 353.709 290.172 349.817 290.172 345.016C290.172 340.215 286.28 336.323 281.478 336.323C276.677 336.323 272.784 340.215 272.784 345.016C272.784 349.817 276.677 353.709 281.478 353.709Z" fill="white"/>
<path d="M290.173 396.824C294.974 396.824 298.867 392.932 298.867 388.132C298.867 383.331 294.974 379.439 290.173 379.439C285.371 379.439 281.479 383.331 281.479 388.132C281.479 392.932 285.371 396.824 290.173 396.824Z" fill="white"/>
<path d="M368.158 355.36C372.959 355.36 376.852 351.468 376.852 346.668C376.852 341.867 372.959 337.975 368.158 337.975C363.356 337.975 359.464 341.867 359.464 346.668C359.464 351.468 363.356 355.36 368.158 355.36Z" fill="white"/>
<path d="M384.503 331.108C389.304 331.108 393.197 327.216 393.197 322.415C393.197 317.614 389.304 313.722 384.503 313.722C379.701 313.722 375.809 317.614 375.809 322.415C375.809 327.216 379.701 331.108 384.503 331.108Z" fill="white"/>
<path d="M473.269 339.8C478.07 339.8 481.963 335.909 481.963 331.108C481.963 326.307 478.07 322.415 473.269 322.415C468.467 322.415 464.575 326.307 464.575 331.108C464.575 335.909 468.467 339.8 473.269 339.8Z" fill="white"/>
<path d="M420.148 177.682C424.95 177.682 428.842 173.791 428.842 168.99C428.842 164.189 424.95 160.297 420.148 160.297C415.347 160.297 411.454 164.189 411.454 168.99C411.454 173.791 415.347 177.682 420.148 177.682Z" fill="white"/>
<path d="M242.877 195.937C247.678 195.937 251.571 192.045 251.571 187.244C251.571 182.444 247.678 178.552 242.877 178.552C238.075 178.552 234.183 182.444 234.183 187.244C234.183 192.045 238.075 195.937 242.877 195.937Z" fill="white"/>
<path d="M253.222 111.531C258.024 111.531 261.916 107.639 261.916 102.839C261.916 98.0378 258.024 94.146 253.222 94.146C248.421 94.146 244.528 98.0378 244.528 102.839C244.528 107.639 248.421 111.531 253.222 111.531Z" fill="white"/>
<path d="M291.651 98.2315C296.452 98.2315 300.345 94.3397 300.345 89.5389C300.345 84.7381 296.452 80.8462 291.651 80.8462C286.849 80.8462 282.957 84.7381 282.957 89.5389C282.957 94.3397 286.849 98.2315 291.651 98.2315Z" fill="white"/>
<path d="M231.488 88.6696C236.29 88.6696 240.182 84.7778 240.182 79.977C240.182 75.1762 236.29 71.2843 231.488 71.2843C226.686 71.2843 222.794 75.1762 222.794 79.977C222.794 84.7778 226.686 88.6696 231.488 88.6696Z" fill="white"/>
<path d="M200.363 17.9983C205.165 17.9983 209.057 14.1065 209.057 9.30569C209.057 4.50487 205.165 0.613037 200.363 0.613037C195.561 0.613037 191.669 4.50487 191.669 9.30569C191.669 14.1065 195.561 17.9983 200.363 17.9983Z" fill="white"/>
</svg>
