<svg width="299" height="503" viewBox="0 0 299 503" fill="none" xmlns="http://www.w3.org/2000/svg">
<path d="M197.28 18.0683C202.082 18.0683 205.974 14.1765 205.974 9.37564C205.974 4.57482 202.082 0.682983 197.28 0.682983C192.478 0.682983 188.586 4.57482 188.586 9.37564C188.586 14.1765 192.478 18.0683 197.28 18.0683Z" fill="white"/>
<path d="M237.62 54.4036C242.422 54.4036 246.314 50.5118 246.314 45.7109C246.314 40.9101 242.422 37.0183 237.62 37.0183C232.819 37.0183 228.926 40.9101 228.926 45.7109C228.926 50.5118 232.819 54.4036 237.62 54.4036Z" fill="white"/>
<path d="M262.92 93.6944C267.722 93.6944 271.614 89.8026 271.614 85.0017C271.614 80.2009 267.722 76.3091 262.92 76.3091C258.119 76.3091 254.226 80.2009 254.226 85.0017C254.226 89.8026 258.119 93.6944 262.92 93.6944Z" fill="white"/>
<path d="M290.306 148.197C295.108 148.197 299 144.306 299 139.505C299 134.704 295.108 130.812 290.306 130.812C285.505 130.812 281.612 134.704 281.612 139.505C281.612 144.306 285.505 148.197 290.306 148.197Z" fill="white"/>
<path d="M178.414 124.119C183.216 124.119 187.108 120.227 187.108 115.426C187.108 110.625 183.216 106.733 178.414 106.733C173.613 106.733 169.72 110.625 169.72 115.426C169.72 120.227 173.613 124.119 178.414 124.119Z" fill="white"/>
<path d="M156.418 163.149C161.22 163.149 165.112 159.257 165.112 154.456C165.112 149.655 161.22 145.763 156.418 145.763C151.617 145.763 147.724 149.655 147.724 154.456C147.724 159.257 151.617 163.149 156.418 163.149Z" fill="white"/>
<path d="M151.202 195.225C156.003 195.225 159.896 191.333 159.896 186.532C159.896 181.731 156.003 177.839 151.202 177.839C146.4 177.839 142.508 181.731 142.508 186.532C142.508 191.333 146.4 195.225 151.202 195.225Z" fill="white"/>
<path d="M147.724 292.061C152.526 292.061 156.418 288.169 156.418 283.368C156.418 278.567 152.526 274.675 147.724 274.675C142.923 274.675 139.03 278.567 139.03 283.368C139.03 288.169 142.923 292.061 147.724 292.061Z" fill="white"/>
<path d="M168.068 353.518C172.87 353.518 176.762 349.626 176.762 344.825C176.762 340.024 172.87 336.133 168.068 336.133C163.266 336.133 159.374 340.024 159.374 344.825C159.374 349.626 163.266 353.518 168.068 353.518Z" fill="white"/>
<path d="M186.152 415.149C190.953 415.149 194.846 411.257 194.846 406.456C194.846 401.655 190.953 397.763 186.152 397.763C181.35 397.763 177.458 401.655 177.458 406.456C177.458 411.257 181.35 415.149 186.152 415.149Z" fill="white"/>
<path d="M137.117 463.48C141.919 463.48 145.811 459.588 145.811 454.787C145.811 449.986 141.919 446.095 137.117 446.095C132.316 446.095 128.423 449.986 128.423 454.787C128.423 459.588 132.316 463.48 137.117 463.48Z" fill="white"/>
<path d="M75.1291 502.162C79.9307 502.162 83.8231 498.27 83.8231 493.47C83.8231 488.669 79.9307 484.777 75.1291 484.777C70.3275 484.777 66.4351 488.669 66.4351 493.47C66.4351 498.27 70.3275 502.162 75.1291 502.162Z" fill="white"/>
<path d="M9.05438 482.256C13.856 482.256 17.7484 478.364 17.7484 473.563C17.7484 468.763 13.856 464.871 9.05438 464.871C4.2528 464.871 0.360352 468.763 0.360352 473.563C0.360352 478.364 4.2528 482.256 9.05438 482.256Z" fill="white"/>
<path d="M21.9216 448.963C26.7231 448.963 30.6156 445.071 30.6156 440.271C30.6156 435.47 26.7231 431.578 21.9216 431.578C17.12 431.578 13.2275 435.47 13.2275 440.271C13.2275 445.071 17.12 448.963 21.9216 448.963Z" fill="white"/>
<path d="M32.7892 398.633C37.5908 398.633 41.4833 394.741 41.4833 389.94C41.4833 385.139 37.5908 381.247 32.7892 381.247C27.9877 381.247 24.0952 385.139 24.0952 389.94C24.0952 394.741 27.9877 398.633 32.7892 398.633Z" fill="white"/>
<path d="M288.307 140.461L260.399 84.654L235.882 47.1887L195.802 10.9403L198.758 7.72404L239.446 44.5809L264.224 82.4809L292.219 138.548L288.307 140.461Z" fill="#FFFDFD"/>
<path d="M74.4336 495.817L6.18555 475.563L20.1829 437.75L31.746 388.897L35.9191 389.94L24.356 438.967L11.9235 472.694L73.8251 491.123L136.335 454.527L184.761 406.108L166.59 345.347L146.333 284.672V284.237L150.159 187.401L154.332 155.499L175.198 115.252L235.969 44.3201L239.272 47.1887L178.849 117.686L158.331 157.151L154.506 187.749L150.68 283.977L170.677 344.043L189.717 407.325L138.77 458.177L74.4336 495.817Z" fill="#FFFDFD"/>
</svg>
