<svg width="478" height="351" viewBox="0 0 478 351" fill="none" xmlns="http://www.w3.org/2000/svg">
<path d="M253.853 234.24L212.73 230.85L179.606 219.898L5.72559 119.063L7.89909 115.325L181.432 215.986L213.6 226.678L247.854 229.373L236.813 192.168H203.689V158.701L159.262 106.198L54.9338 10.3177L57.8897 7.10144L162.392 103.155L208.036 157.137V187.822H240.03L253.853 234.24Z" fill="#FFFDFD"/>
<path d="M466.596 342.812L449.208 308.736L312.972 269.533L249.767 233.719L251.94 229.894L314.624 265.534L452.251 305.086L470.421 340.812L466.596 342.812Z" fill="#FFFDFD"/>
<path d="M57.194 17.4456C61.9956 17.4456 65.8881 13.5538 65.8881 8.75296C65.8881 3.95214 61.9956 0.0603027 57.194 0.0603027C52.3924 0.0603027 48.5 3.95214 48.5 8.75296C48.5 13.5538 52.3924 17.4456 57.194 17.4456Z" fill="white"/>
<path d="M160.218 110.109C165.02 110.109 168.912 106.217 168.912 101.417C168.912 96.6158 165.02 92.724 160.218 92.724C155.417 92.724 151.524 96.6158 151.524 101.417C151.524 106.217 155.417 110.109 160.218 110.109Z" fill="white"/>
<path d="M205.079 167.742C209.88 167.742 213.773 163.85 213.773 159.049C213.773 154.248 209.88 150.356 205.079 150.356C200.277 150.356 196.385 154.248 196.385 159.049C196.385 163.85 200.277 167.742 205.079 167.742Z" fill="white"/>
<path d="M207.426 199.122C212.228 199.122 216.12 195.23 216.12 190.429C216.12 185.629 212.228 181.737 207.426 181.737C202.625 181.737 198.732 185.629 198.732 190.429C198.732 195.23 202.625 199.122 207.426 199.122Z" fill="white"/>
<path d="M236.899 199.122C241.701 199.122 245.593 195.23 245.593 190.429C245.593 185.629 241.701 181.737 236.899 181.737C232.098 181.737 228.205 185.629 228.205 190.429C228.205 195.23 232.098 199.122 236.899 199.122Z" fill="white"/>
<path d="M250.81 240.499C255.612 240.499 259.504 236.607 259.504 231.806C259.504 227.006 255.612 223.114 250.81 223.114C246.009 223.114 242.116 227.006 242.116 231.806C242.116 236.607 246.009 240.499 250.81 240.499Z" fill="white"/>
<path d="M212.469 238.761C217.271 238.761 221.163 234.869 221.163 230.068C221.163 225.267 217.271 221.375 212.469 221.375C207.668 221.375 203.775 225.267 203.775 230.068C203.775 234.869 207.668 238.761 212.469 238.761Z" fill="white"/>
<path d="M182.475 227.199C187.277 227.199 191.169 223.308 191.169 218.507C191.169 213.706 187.277 209.814 182.475 209.814C177.674 209.814 173.781 213.706 173.781 218.507C173.781 223.308 177.674 227.199 182.475 227.199Z" fill="white"/>
<path d="M9.28973 127.234C14.0913 127.234 17.9838 123.342 17.9838 118.541C17.9838 113.74 14.0913 109.849 9.28973 109.849C4.48815 109.849 0.595703 113.74 0.595703 118.541C0.595703 123.342 4.48815 127.234 9.28973 127.234Z" fill="white"/>
<path d="M314.276 277.008C319.078 277.008 322.97 273.116 322.97 268.316C322.97 263.515 319.078 259.623 314.276 259.623C309.474 259.623 305.582 263.515 305.582 268.316C305.582 273.116 309.474 277.008 314.276 277.008Z" fill="white"/>
<path d="M450.077 316.734C454.878 316.734 458.771 312.842 458.771 308.041C458.771 303.24 454.878 299.348 450.077 299.348C445.275 299.348 441.383 303.24 441.383 308.041C441.383 312.842 445.275 316.734 450.077 316.734Z" fill="white"/>
<path d="M468.508 350.461C473.31 350.461 477.203 346.569 477.203 341.769C477.203 336.968 473.31 333.076 468.508 333.076C463.707 333.076 459.814 336.968 459.814 341.769C459.814 346.569 463.707 350.461 468.508 350.461Z" fill="white"/>
</svg>
