<svg width="450" height="471" viewBox="0 0 450 471" fill="none" xmlns="http://www.w3.org/2000/svg">
<path d="M350.323 167.193L260.601 150.242L260.079 149.808L179.485 70.2699L182.615 67.2275L262.687 146.244L348.497 162.412L393.098 102.607L437.263 3.85803L441.263 5.59654L396.836 104.78L350.323 167.193Z" fill="#FFFDFD"/>
<path d="M318.417 370.688L203.221 271.766L259.645 147.374L263.557 149.199L208.524 270.549L312.244 359.648L299.116 275.503L299.377 274.982L347.455 163.977L351.454 165.628L303.637 276.112L318.417 370.688Z" fill="#FFFDFD"/>
<path d="M10.821 371.644L8.38672 367.993L117.932 294.367L205.22 269.071L206.437 273.243L119.496 298.452L10.821 371.644Z" fill="#FFFDFD"/>
<path d="M93.9363 460.396L91.502 456.832L163.749 408.327L196.352 441.359L314.156 363.386L316.503 366.95L195.743 447.01L163.228 413.891L93.9363 460.396Z" fill="#FFFDFD"/>
<path d="M9.60419 378.511C14.4058 378.511 18.2982 374.62 18.2982 369.819C18.2982 365.018 14.4058 361.126 9.60419 361.126C4.80261 361.126 0.910156 365.018 0.910156 369.819C0.910156 374.62 4.80261 378.511 9.60419 378.511Z" fill="white"/>
<path d="M119.844 304.972C124.646 304.972 128.538 301.08 128.538 296.279C128.538 291.478 124.646 287.586 119.844 287.586C115.043 287.586 111.15 291.478 111.15 296.279C111.15 301.08 115.043 304.972 119.844 304.972Z" fill="white"/>
<path d="M205.829 279.85C210.63 279.85 214.523 275.958 214.523 271.157C214.523 266.356 210.63 262.464 205.829 262.464C201.027 262.464 197.135 266.356 197.135 271.157C197.135 275.958 201.027 279.85 205.829 279.85Z" fill="white"/>
<path d="M261.644 156.936C266.446 156.936 270.338 153.044 270.338 148.243C270.338 143.442 266.446 139.55 261.644 139.55C256.843 139.55 252.95 143.442 252.95 148.243C252.95 153.044 256.843 156.936 261.644 156.936Z" fill="white"/>
<path d="M181.05 78.7018C185.852 78.7018 189.745 74.81 189.745 70.0092C189.745 65.2084 185.852 61.3165 181.05 61.3165C176.249 61.3165 172.356 65.2084 172.356 70.0092C172.356 74.81 176.249 78.7018 181.05 78.7018Z" fill="white"/>
<path d="M349.454 173.452C354.255 173.452 358.148 169.56 358.148 164.759C358.148 159.958 354.255 156.066 349.454 156.066C344.652 156.066 340.76 159.958 340.76 164.759C340.76 169.56 344.652 173.452 349.454 173.452Z" fill="white"/>
<path d="M302.158 287.065C306.959 287.065 310.852 283.173 310.852 278.372C310.852 273.571 306.959 269.679 302.158 269.679C297.356 269.679 293.464 273.571 293.464 278.372C293.464 283.173 297.356 287.065 302.158 287.065Z" fill="white"/>
<path d="M315.286 372.427C320.087 372.427 323.98 368.535 323.98 363.734C323.98 358.933 320.087 355.041 315.286 355.041C310.484 355.041 306.592 358.933 306.592 363.734C306.592 368.535 310.484 372.427 315.286 372.427Z" fill="white"/>
<path d="M195.308 453.007C200.11 453.007 204.002 449.116 204.002 444.315C204.002 439.514 200.11 435.622 195.308 435.622C190.507 435.622 186.614 439.514 186.614 444.315C186.614 449.116 190.507 453.007 195.308 453.007Z" fill="white"/>
<path d="M164.88 420.584C169.681 420.584 173.574 416.692 173.574 411.891C173.574 407.09 169.681 403.199 164.88 403.199C160.078 403.199 156.186 407.09 156.186 411.891C156.186 416.692 160.078 420.584 164.88 420.584Z" fill="white"/>
<path d="M92.7194 470.132C97.521 470.132 101.413 466.24 101.413 461.439C101.413 456.638 97.521 452.747 92.7194 452.747C87.9178 452.747 84.0254 456.638 84.0254 461.439C84.0254 466.24 87.9178 470.132 92.7194 470.132Z" fill="white"/>
<path d="M393.62 114.342C398.421 114.342 402.314 110.45 402.314 105.649C402.314 100.848 398.421 96.9564 393.62 96.9564C388.818 96.9564 384.926 100.848 384.926 105.649C384.926 110.45 388.818 114.342 393.62 114.342Z" fill="white"/>
<path d="M441.089 18.2009C445.89 18.2009 449.783 14.309 449.783 9.50821C449.783 4.70739 445.89 0.815552 441.089 0.815552C436.287 0.815552 432.395 4.70739 432.395 9.50821C432.395 14.309 436.287 18.2009 441.089 18.2009Z" fill="white"/>
</svg>
