<svg width="25" height="25" viewBox="0 0 25 25" fill="none" xmlns="http://www.w3.org/2000/svg">
<path d="M7.36 14.4846C9.21568 14.4846 10.72 12.9803 10.72 11.1246C10.72 9.26897 9.21568 7.76465 7.36 7.76465C5.50432 7.76465 4 9.26897 4 11.1246C4 12.9803 5.50432 14.4846 7.36 14.4846Z" stroke="white" stroke-width="1.8" stroke-linecap="round" stroke-linejoin="round"/>
<path d="M18.4 17.4546C20.2557 17.4546 21.76 15.9503 21.76 14.0946C21.76 12.2389 20.2557 10.7346 18.4 10.7346C16.5444 10.7346 15.04 12.2389 15.04 14.0946C15.04 15.9503 16.5444 17.4546 18.4 17.4546Z" stroke="white" stroke-width="1.8" stroke-linecap="round" stroke-linejoin="round"/>
<path d="M21.2594 15.8645C21.2594 15.8645 19.3194 20.2345 12.6794 20.0145C6.03937 19.7945 4.85938 16.3945 4.85938 16.3945" stroke="white" stroke-width="1.8" stroke-linecap="round" stroke-linejoin="round"/>
<path d="M4.23047 9.91466C4.23047 9.91466 6.53047 4.82466 12.7305 5.00466C18.9305 5.18466 21.0305 8.89466 21.0305 8.89466" stroke="white" stroke-width="1.8" stroke-linecap="round" stroke-linejoin="round"/>
</svg>
