<svg width="25" height="25" viewBox="0 0 25 25" fill="none" xmlns="http://www.w3.org/2000/svg">
<path d="M3 4.86188C3 4.86188 4.07 3.88188 5 4.01188C5.93 4.14188 6.92 4.23188 7.5 8.29188C8.08 12.3519 8.21 14.9719 8.21 14.9719C8.21 14.9719 8.92 4.03188 12.53 4.00188C14.58 4.00188 14.94 6.20188 14.94 6.20188C14.94 6.20188 14.84 10.8019 14.94 11.8119C15.03 12.7119 15.88 16.1219 18.55 16.1319C21.52 16.1519 21.05 13.3219 21.05 13.3219C21.05 13.3219 20.78 11.4519 18.78 11.4519C15.71 11.3919 14.28 18.7619 11.25 19.5119C9.35 20.0019 7.33 20.0019 7.33 20.0019" stroke="white" stroke-width="1.8" stroke-linecap="round" stroke-linejoin="round"/>
</svg>
