<svg width="25" height="25" viewBox="0 0 25 25" fill="none" xmlns="http://www.w3.org/2000/svg">
<path d="M8.72 17.6002C10.2222 17.6002 11.44 16.3824 11.44 14.8802C11.44 13.3779 10.2222 12.1602 8.72 12.1602C7.21779 12.1602 6 13.3779 6 14.8802C6 16.3824 7.21779 17.6002 8.72 17.6002Z" stroke="white" stroke-width="1.8" stroke-miterlimit="10"/>
<path d="M11.4301 14.88C11.4301 14.88 11.4701 12.47 8.93015 7.57C7.68015 3.69 10.7101 2 12.4101 2C14.1101 2 15.9301 3.07 16.4201 5.03C17.3101 9.98 12.3201 16.03 13.4801 20.13C14.6901 23.39 18.5001 22.36 18.4701 18.75" stroke="white" stroke-width="1.8" stroke-linecap="round" stroke-linejoin="round"/>
</svg>
