<svg width="26" height="25" viewBox="0 0 26 25" fill="none" xmlns="http://www.w3.org/2000/svg">
<path d="M1 6.2C1 6.2 2.34 5.13 3.81 5.22C5.28 5.31 5.55 6.29 5.64 6.96C5.73 7.63 6.66 16.18 6.66 17.21C6.66 17.21 7.06 6.03 10.89 5C12.05 5 13.16 6.02 13.16 7.5V17.21C13.16 17.21 13.34 5.58 17.57 5C19.04 5 19.49 6.16 19.62 6.96C19.75 7.76 19.17 16.14 20.51 17.79C21.85 19.44 23.72 20.51 24.7 20.73" stroke="white" stroke-width="1.8" stroke-linecap="round" stroke-linejoin="round"/>
<path d="M14.9902 20.1902C14.9902 20.1902 18.6002 20.6802 20.5102 17.7802C22.4202 14.8802 23.7802 10.5802 22.4302 9.63021C21.0802 8.68021 19.6602 13.5502 19.6602 13.5502" stroke="white" stroke-width="1.8" stroke-linecap="round" stroke-linejoin="round"/>
</svg>
