<svg width="286" height="269" viewBox="0 0 286 269" fill="none" xmlns="http://www.w3.org/2000/svg">
<path d="M94.9179 259.752L90.5709 259.665L94.1355 135.534L72.7481 98.9379L7.80371 11.0552L11.3683 8.44745L76.3996 96.504L98.5694 134.404L94.9179 259.752Z" fill="#FFFDFD"/>
<path d="M276.102 203.684L95.6138 137.012L97.0917 132.926L277.667 199.599L276.102 203.684Z" fill="#FFFDFD"/>
<path d="M9.62958 17.8355C14.4312 17.8355 18.3236 13.9437 18.3236 9.14285C18.3236 4.34203 14.4312 0.450195 9.62958 0.450195C4.828 0.450195 0.935547 4.34203 0.935547 9.14285C0.935547 13.9437 4.828 17.8355 9.62958 17.8355Z" fill="white"/>
<path d="M73.8786 105.371C78.6802 105.371 82.5726 101.479 82.5726 96.6779C82.5726 91.8771 78.6802 87.9853 73.8786 87.9853C69.077 87.9853 65.1846 91.8771 65.1846 96.6779C65.1846 101.479 69.077 105.371 73.8786 105.371Z" fill="white"/>
<path d="M96.3962 143.444C101.198 143.444 105.09 139.553 105.09 134.752C105.09 129.951 101.198 126.059 96.3962 126.059C91.5946 126.059 87.7021 129.951 87.7021 134.752C87.7021 139.553 91.5946 143.444 96.3962 143.444Z" fill="white"/>
<path d="M89.3537 268.445C94.1553 268.445 98.0477 264.553 98.0477 259.752C98.0477 254.951 94.1553 251.059 89.3537 251.059C84.5521 251.059 80.6597 254.951 80.6597 259.752C80.6597 264.553 84.5521 268.445 89.3537 268.445Z" fill="white"/>
<path d="M276.884 210.291C281.686 210.291 285.578 206.399 285.578 201.598C285.578 196.797 281.686 192.906 276.884 192.906C272.082 192.906 268.19 196.797 268.19 201.598C268.19 206.399 272.082 210.291 276.884 210.291Z" fill="white"/>
</svg>
